HIERARCHY
ROOT Hips
{
	OFFSET 0.000000 0.000000 0.000000
	CHANNELS 6 Xposition Yposition Zposition Zrotation Yrotation Xrotation 
	JOINT LHipJoint
	{
		OFFSET 0.000000 0.000000 0.000000
		CHANNELS 3 Zrotation Yrotation Xrotation
		JOINT LeftUpLeg
		{
			OFFSET 1.363060 -1.794630 0.839290
			CHANNELS 3 Zrotation Yrotation Xrotation
			JOINT LeftLeg
			{
				OFFSET 2.448110 -6.726130 0.000000
				CHANNELS 3 Zrotation Yrotation Xrotation
				JOINT LeftFoot
				{
					OFFSET 2.562200 -7.039590 0.000000
					CHANNELS 3 Zrotation Yrotation Xrotation
					JOINT LeftToeBase
					{
						OFFSET 0.157640 -0.433110 2.322550
						CHANNELS 3 Zrotation Yrotation Xrotation
						End Site
						{
							OFFSET 0.000000 0.000000 0.000000
						}
					}
				}
			}
		}
	}
	JOINT RHipJoint
	{
		OFFSET 0.000000 0.000000 0.000000
		CHANNELS 3 Zrotation Yrotation Xrotation
		JOINT RightUpLeg
		{
			OFFSET -1.305520 -1.794630 0.839290
			CHANNELS 3 Zrotation Yrotation Xrotation
			JOINT RightLeg
			{
				OFFSET -2.542530 -6.985550 0.000000
				CHANNELS 3 Zrotation Yrotation Xrotation
				JOINT RightFoot
				{
					OFFSET -2.568260 -7.056230 0.000000
					CHANNELS 3 Zrotation Yrotation Xrotation
					JOINT RightToeBase
					{
						OFFSET -0.164730 -0.452590 2.363150
						CHANNELS 3 Zrotation Yrotation Xrotation
						End Site
						{
							OFFSET 0.000000 0.000000 0.000000
						}
					}
				}
			}
		}
	}
	JOINT LowerBack
	{
		OFFSET 0.000000 0.000000 0.000000
		CHANNELS 3 Zrotation Yrotation Xrotation
		JOINT Spine
		{
			OFFSET 0.028270 2.035590 -0.193380
			CHANNELS 3 Zrotation Yrotation Xrotation
			JOINT Spine1
			{
				OFFSET 0.056720 2.048850 -0.042750
				CHANNELS 3 Zrotation Yrotation Xrotation
				JOINT Neck
				{
					OFFSET 0.000000 0.000000 0.000000
					CHANNELS 3 Zrotation Yrotation Xrotation
					JOINT Neck1
					{
						OFFSET -0.054170 1.746240 0.172020
						CHANNELS 3 Zrotation Yrotation Xrotation
						JOINT Head
						{
							OFFSET 0.104070 1.761360 -0.123970
							CHANNELS 3 Zrotation Yrotation Xrotation
							End Site
							{
								OFFSET 0.000000 0.000000 0.000000
							}
						}
					}
				}
				JOINT LeftShoulder
				{
					OFFSET 0.000000 0.000000 0.000000
					CHANNELS 3 Zrotation Yrotation Xrotation
					JOINT LeftArm
					{
						OFFSET 3.362410 1.200890 -0.311210
						CHANNELS 3 Zrotation Yrotation Xrotation
						JOINT LeftForeArm
						{
							OFFSET 4.983000 -0.000000 -0.000000
							CHANNELS 3 Zrotation Yrotation Xrotation
							JOINT LeftHand
							{
								OFFSET 3.483560 -0.000000 -0.000000
								CHANNELS 3 Zrotation Yrotation Xrotation
								JOINT LeftFingerBase
								{
									OFFSET 0.000000 0.000000 0.000000
									CHANNELS 3 Zrotation Yrotation Xrotation
									JOINT LeftHandIndex1
									{
										OFFSET 0.715260 -0.000000 -0.000000
										CHANNELS 3 Zrotation Yrotation Xrotation
										End Site
										{
											OFFSET 0.000000 0.000000 0.000000
										}
									}
								}
								JOINT LThumb
								{
									OFFSET 0.000000 0.000000 0.000000
									CHANNELS 3 Zrotation Yrotation Xrotation
									End Site
									{
										OFFSET 0.000000 0.000000 0.000000
									}
								}
							}
						}
					}
				}
				JOINT RightShoulder
				{
					OFFSET 0.000000 0.000000 0.000000
					CHANNELS 3 Zrotation Yrotation Xrotation
					JOINT RightArm
					{
						OFFSET -3.136600 1.374050 -0.404650
						CHANNELS 3 Zrotation Yrotation Xrotation
						JOINT RightForeArm
						{
							OFFSET -5.241900 -0.000000 -0.000000
							CHANNELS 3 Zrotation Yrotation Xrotation
							JOINT RightHand
							{
								OFFSET -3.444170 -0.000000 -0.000000
								CHANNELS 3 Zrotation Yrotation Xrotation
								JOINT RightFingerBase
								{
									OFFSET 0.000000 0.000000 0.000000
									CHANNELS 3 Zrotation Yrotation Xrotation
									JOINT RightHandIndex1
									{
										OFFSET -0.622530 -0.000000 -0.000000
										CHANNELS 3 Zrotation Yrotation Xrotation
										End Site
										{
											OFFSET 0.000000 0.000000 0.000000
										}
									}
								}
								JOINT RThumb
								{
									OFFSET 0.000000 0.000000 0.000000
									CHANNELS 3 Zrotation Yrotation Xrotation
									End Site
									{
										OFFSET 0.000000 0.000000 0.000000
									}
								}
							}
						}
					}
				}
			}
		}
	}
}
MOTION
Frames: 11
Frame Time: 0.008333
1.055415 16.767287 0.567574 30.161727 82.886694 37.386607 -8.944769 1.086485 4.130149 -14.713784 -0.301881 -34.336864 -2.723777 -0.124403 14.149592 0.139622 2.897884 7.921735 1.305699 0.000000 -19.016300 11.117441 -5.315129 1.490933 1.918079 -4.266410 9.519993 1.317029 -1.985501 21.000141 0.598798 7.588809 5.270760 1.435500 0.000001 -73.459001 -9.486728 1.071251 -8.157681 -2.252143 1.671493 -4.102182 -3.227277 1.487694 1.909123 0.773222 -7.436176 -9.665165 -1.456319 -0.085086 -0.567921 0.000000 0.000000 0.000000 -4.378658 25.134326 2.324857 -53.140172 20.333844 -7.268880 -5.465558 -1.876642 -0.033704 1.051035 11.276539 0.119471 -0.167635 -0.006313 -0.000000 0.000000 0.000000 0.000000 0.000000 0.000000 0.000000 -0.355863 -2.039153 -0.717369 34.394327 65.517553 30.709133 -179.599476 89.609151 -179.992860 4.074488 6.122766 0.247471 -0.232035 -0.486943 0.000000 0.000000 0.000000 0.000000 0.000000 0.000000 0.000000 
1.226758 16.800529 0.562106 31.243552 82.648669 38.307093 -8.843180 1.179247 4.139134 -15.046117 -0.389532 -33.590517 -2.736987 -0.133503 14.510696 0.178754 3.082297 7.086267 1.298800 -0.000000 -18.811000 11.351007 -5.378948 1.488712 1.110241 -4.599576 8.323175 1.042277 -2.236061 23.662692 0.539822 8.050097 7.678418 1.884000 0.000000 -75.562499 -9.676844 1.056934 -8.209726 -2.309689 1.679499 -4.088452 -3.274779 1.503712 2.037282 0.985519 -7.348726 -9.659047 -1.515664 -0.089589 -0.570045 0.000000 0.000000 0.000000 -4.549376 24.904791 2.334719 -53.629651 19.040336 -6.916432 -5.406060 -1.782588 -0.031662 1.326196 11.046543 0.143007 -0.160405 -0.001760 -0.000000 0.000000 0.000000 0.000000 0.000000 0.000000 0.000000 0.035915 -1.795094 -0.508395 37.332637 64.411594 33.190918 0.364849 89.870810 0.008318 4.068234 6.135790 0.246217 -0.212605 -0.476030 0.000000 0.000000 0.000000 0.000000 0.000000 0.000000 0.000000 
1.393013 16.834161 0.554412 31.968960 82.358055 38.870201 -8.758899 1.266989 4.135593 -15.369037 -0.414723 -32.766997 -2.761183 -0.155866 14.715751 0.216891 3.240344 6.209414 1.275300 0.000000 -18.672600 11.571590 -5.410883 1.477464 0.298961 -4.968197 6.976094 0.754765 -2.463541 26.493157 0.444260 8.521408 10.239124 2.412200 -0.000000 -76.932300 -9.824659 1.066014 -8.233243 -2.359227 1.708218 -4.077832 -3.326351 1.540300 2.135004 1.179417 -7.240866 -9.640362 -1.575976 -0.094329 -0.568590 0.000000 0.000000 0.000000 -4.713059 24.646053 2.359899 -54.192729 17.672557 -6.433278 -5.342736 -1.808110 -0.029653 1.529414 10.814739 0.158447 -0.152927 0.002714 -0.000000 0.000000 0.000000 0.000000 0.000000 0.000000 0.000000 0.378266 -1.497422 -0.348308 40.371689 63.076742 35.595318 0.336809 89.185581 0.009995 4.056593 6.151714 0.244677 -0.192061 -0.463911 0.000000 0.000000 0.000000 0.000000 0.000000 0.000000 0.000000 
1.554136 16.867403 0.544713 32.362874 82.023985 39.105727 -8.693039 1.350221 4.114892 -15.687555 -0.355684 -31.890330 -2.794271 -0.188177 14.779232 0.252012 3.366490 5.345197 1.238500 0.000000 -18.565100 11.776178 -5.407247 1.460687 -0.490524 -5.345451 5.500001 0.464283 -2.661797 29.453815 0.308003 8.924040 12.890358 2.988000 -0.000000 -77.444899 -9.927111 1.093977 -8.226377 -2.400275 1.752244 -4.071832 -3.386181 1.591849 2.193520 1.360477 -7.112755 -9.608965 -1.637780 -0.099360 -0.563366 0.000000 0.000000 0.000000 -4.866217 24.361661 2.399274 -54.818724 16.251826 -5.823003 -5.277244 -1.967361 -0.027756 1.641558 10.592681 0.164891 -0.145545 0.007060 -0.000000 0.000000 0.000000 0.000000 0.000000 0.000000 0.000000 0.680166 -1.154311 -0.245704 43.456317 61.522358 37.860507 0.320470 88.315255 0.011466 4.036514 6.169566 0.242645 -0.171056 -0.451063 0.000000 0.000000 0.000000 0.000000 0.000000 0.000000 0.000000 
1.710230 16.899548 0.533450 32.497675 81.656577 39.088660 -8.642181 1.430255 4.074931 -16.008079 -0.205341 -30.978292 -2.834430 -0.227844 14.715009 0.282787 3.463013 4.538168 1.193900 0.000000 -18.457800 11.966013 -5.365642 1.438883 -1.243917 -5.717399 3.917457 0.182073 -2.828665 32.507437 0.132770 9.176235 15.547486 3.556599 0.000000 -77.055600 -9.987530 1.134009 -8.186341 -2.433787 1.804507 -4.070718 -3.458116 1.651251 2.207756 1.537621 -6.966243 -9.566446 -1.701705 -0.104713 -0.554772 0.000000 0.000000 0.000000 -5.004037 24.057499 2.450743 -55.494252 14.793591 -5.087672 -5.211426 -2.270335 -0.026022 1.647772 10.386315 0.161637 -0.138618 0.011222 -0.000000 0.000000 0.000000 0.000000 0.000000 0.000000 0.000000 0.958737 -0.778470 -0.203077 46.528518 59.773847 39.930952 0.319747 87.243384 0.012822 4.002136 6.188382 0.239816 -0.150255 -0.438050 0.000000 0.000000 0.000000 0.000000 0.000000 0.000000 0.000000 
1.861498 16.930108 0.521015 32.431368 81.268068 38.877117 -8.604710 1.507693 4.013839 -16.330410 0.042765 -30.050198 -2.879371 -0.271798 14.547252 0.307572 3.525740 3.814393 1.144499 0.000000 -18.325900 12.139342 -5.286409 1.411720 -1.941339 -6.068969 2.257646 -0.081006 -2.966306 35.611713 -0.075129 9.184436 18.110173 4.038300 0.000000 -75.821801 -10.007261 1.178894 -8.110270 -2.460187 1.857476 -4.073894 -3.544942 1.710999 2.175293 1.719595 -6.803257 -9.514317 -1.768499 -0.110424 -0.543231 0.000000 0.000000 0.000000 -5.128425 23.734133 2.510940 -56.203152 13.322334 -4.211329 -5.147357 -2.739085 -0.024480 1.535812 10.199190 0.148182 -0.132493 0.015045 -0.000000 0.000000 0.000000 0.000000 0.000000 0.000000 0.000000 1.234020 -0.382696 -0.215843 49.532154 57.867632 41.762582 0.336393 85.960083 0.013985 3.945794 6.206871 0.235787 -0.130229 -0.425368 0.000000 0.000000 0.000000 0.000000 0.000000 0.000000 0.000000 
2.008248 16.958760 0.507876 32.236442 80.870192 38.542429 -8.577351 1.583087 3.932190 -16.653169 0.381489 -29.118672 -2.927235 -0.317657 14.298730 0.325631 3.554980 3.185616 1.093200 -0.000000 -18.156300 12.296432 -5.172281 1.376895 -2.571957 -6.396272 0.548150 -0.317629 -3.080815 38.727428 -0.306479 8.862431 20.470944 4.342600 0.000000 -73.923900 -9.991634 1.220951 -7.995950 -2.480591 1.903733 -4.079636 -3.647912 1.763743 2.098587 1.916466 -6.626948 -9.455080 -1.838863 -0.116503 -0.529530 0.000000 0.000000 0.000000 -5.240886 23.393651 2.576172 -56.927167 11.854170 -3.170809 -5.086683 -3.391465 -0.023135 1.301506 10.029250 0.124730 -0.127439 0.018372 -0.000000 0.000000 0.000000 0.000000 0.000000 0.000000 0.000000 1.529801 0.019721 -0.273856 52.417292 55.848025 43.324148 0.370073 84.463059 0.014876 3.858285 6.224346 0.229954 -0.111384 -0.413404 0.000000 0.000000 0.000000 0.000000 0.000000 0.000000 0.000000 
2.150858 16.985353 0.494309 31.962049 80.476032 38.129872 -8.559261 1.656037 3.831030 -16.969001 0.800974 -28.193669 -2.975925 -0.363023 13.996620 0.336486 3.547030 2.646239 1.040500 0.000000 -17.944200 12.435425 -5.028360 1.331903 -3.122770 -6.695720 -1.181938 -0.525187 -3.180524 41.816409 -0.551797 8.135767 22.523161 4.381499 0.000000 -71.632400 -9.943682 1.253733 -7.842127 -2.495458 1.937040 -4.086271 -3.766912 1.803278 1.980689 2.136203 -6.439968 -9.388826 -1.913705 -0.123011 -0.513781 0.000000 0.000000 0.000000 -5.347423 23.024001 2.642571 -57.646815 10.419015 -1.945526 -5.030391 -4.252614 -0.021967 0.950587 9.868081 0.092177 -0.123621 0.020981 -0.000000 0.000000 0.000000 0.000000 0.000000 0.000000 0.000000 1.868420 0.419009 -0.362170 55.142566 53.758591 44.598743 0.418422 82.756894 0.015427 3.728670 6.239803 0.221715 -0.093865 -0.402363 0.000000 0.000000 0.000000 0.000000 0.000000 0.000000 0.000000 
2.289777 17.009930 0.480482 31.637759 80.099213 37.666829 -8.551099 1.725441 3.712109 -17.265873 1.287808 -27.285040 -3.023357 -0.405703 13.670502 0.339931 3.495500 2.178097 0.984700 0.000001 -17.695600 12.553985 -4.861291 1.274621 -3.580112 -6.965163 -2.907895 -0.705799 -3.273992 44.845350 -0.802891 6.960043 24.167667 4.091800 0.000000 -69.221000 -9.865010 1.272671 -7.648987 -2.504945 1.953042 -4.090424 -3.900911 1.825250 1.833226 2.386409 -6.244936 -9.320682 -1.992831 -0.129823 -0.497618 0.000000 0.000000 0.000000 -5.450115 22.650458 2.706349 -58.339536 8.983086 -0.496769 -4.977113 -5.303132 -0.020921 0.506278 9.696344 0.052726 -0.121004 0.022831 -0.000000 0.000000 0.000000 0.000000 0.000000 0.000000 0.000000 2.266341 0.805767 -0.470214 57.682753 51.634231 45.571982 0.477752 80.854821 0.015614 3.557248 6.261294 0.211362 -0.077970 -0.392396 0.000000 0.000000 0.000000 0.000000 0.000000 0.000000 0.000000 
2.425504 17.032535 0.467022 31.374169 79.744426 37.263659 -8.541872 1.791819 3.587975 -17.547389 1.773780 -26.374498 -3.069085 -0.447848 13.307926 0.341520 3.443238 1.772830 0.934600 0.000000 -17.430900 12.661919 -4.673720 1.200798 -3.970071 -7.228708 -4.625314 -0.865903 -3.368328 47.795265 -1.055380 5.341581 25.340064 3.460800 -0.000001 -66.910300 -9.774254 1.271436 -7.424228 -2.512540 1.947369 -4.093659 -4.047479 1.825184 1.654809 2.674144 -6.055607 -9.242628 -2.077743 -0.137203 -0.478737 0.000000 0.000000 0.000000 -5.551433 22.200363 2.765433 -58.985337 7.656713 1.166533 -4.926826 -6.631548 -0.020032 -0.015208 9.527370 0.008375 -0.119581 0.023552 -0.000000 0.000000 0.000000 0.000000 0.000000 0.000000 0.000000 2.749482 1.165981 -0.573887 60.018386 49.523856 46.270777 0.544711 78.764588 0.015361 3.314914 6.272513 0.196606 -0.062814 -0.383204 0.000000 0.000000 0.000000 0.000000 0.000000 0.000000 0.000000 
2.558491 17.053462 0.453481 31.107697 79.428158 36.855621 -8.541784 1.852238 3.456745 -17.788257 2.267506 -25.481915 -3.110159 -0.486050 12.955270 0.339165 3.358898 1.390678 0.880900 -0.000000 -17.158800 12.748530 -4.474414 1.111819 -4.257588 -7.468119 -6.309975 -1.011499 -3.468541 50.636318 -1.303616 3.315580 25.960984 2.512100 -0.000000 -64.790300 -9.656842 1.251236 -7.169420 -2.515165 1.919915 -4.091993 -4.205550 1.802887 1.461933 2.999466 -5.868240 -9.162510 -2.166923 -0.144862 -0.459549 0.000000 0.000000 0.000000 -5.654484 21.736900 2.816407 -59.560959 6.331217 3.067836 -4.874152 -8.143394 -0.019186 -0.556825 9.318422 -0.035773 -0.118990 0.023396 -0.000000 0.000000 0.000000 0.000000 0.000000 0.000000 0.000000 3.313097 1.498157 -0.673739 62.152400 47.430427 46.677049 0.615075 76.507403 0.014730 3.022660 6.294899 0.179334 -0.048999 -0.374855 -0.000000 0.000000 0.000000 0.000000 0.000000 0.000000 0.000000 
